<svg width="168" height="86" viewBox="0 0 168 86" fill="none" xmlns="http://www.w3.org/2000/svg">
<path d="M51.5027 54.2432H54.6093V67.1038H51.5027V61.7039H45.7328V67.1038H42.6445V54.2432H45.7328V59.3434H51.5027V54.2432Z" fill="#D65C34"/>
<path d="M65.7549 60.9966C65.7549 56.939 68.2438 54.0098 72.3901 54.0098C76.5363 54.0098 78.6369 56.6394 78.6369 60.2199C78.6369 63.9962 76.3437 67.3291 72.0017 67.3291C67.9962 67.3291 65.7549 64.6994 65.7549 60.9935V60.9966ZM75.3713 60.6786C75.3713 57.9603 74.3317 56.3214 72.2311 56.3214C70.1304 56.3214 69.0205 57.9786 69.0205 60.5379C69.0205 63.0972 70.0265 65.0205 72.1791 65.0205C74.3317 65.0205 75.3713 63.1859 75.3713 60.6786Z" fill="#D65C34"/>
<path d="M89.0577 67.1038L90.5927 54.2432H94.4913L96.3442 59.5177L97.2982 62.1809H97.4205L98.4265 59.4473L100.331 54.2432H103.86L105.254 67.1038H102.044L101.603 62.4989L101.233 59.059H101.126L99.8728 62.4653L98.1421 67.1038H95.7082L94.1029 62.4469L92.9196 58.952H92.8126L92.4426 62.4806L91.984 67.1038H89.0547H89.0577Z" fill="#D65C34"/>
<path d="M119.613 64.7402H125.346V67.1038H116.524V54.2432H125.187V56.6068H119.613V59.4473H124.181V61.707H119.613V64.7402Z" fill="#D65C34"/>
<path d="M59.6116 42.1771C59.2325 42.0701 58.9084 41.9295 58.6485 41.7643C58.4222 41.6206 58.2326 41.4188 58.0736 41.1559C57.8779 40.8348 57.6853 40.422 57.4835 39.893L47.9374 18H45.213L36.1714 39.4803C35.8748 40.1958 35.6149 40.7553 35.3978 41.1375C35.2174 41.4586 35.0217 41.7032 34.8199 41.8591C34.6242 42.012 34.3552 42.1282 34.0249 42.2077C33.6182 42.3025 33.074 42.3881 32.4135 42.4615L31.75 42.5349V45.189H42.403V42.3698L41.6844 42.3423C41.0117 42.3178 40.4614 42.2811 40.0424 42.2322C39.6419 42.1863 39.5165 42.0946 39.5074 42.0946C39.5074 42.0885 39.4951 42.0548 39.5012 41.9723C39.5135 41.8041 39.5838 41.4769 39.8315 40.8715L41.3542 37.2787C41.4857 36.9699 41.7884 36.7681 42.1247 36.7681H50.3163C50.6496 36.7681 50.9492 36.9638 51.0838 37.2695L52.5117 40.5413C52.6738 40.9602 52.7869 41.321 52.8419 41.6084C52.8817 41.8102 52.8328 41.8805 52.8205 41.9019C52.8052 41.9233 52.7166 42.0365 52.368 42.1435C52.1295 42.2169 51.6617 42.3117 50.7872 42.3423L50.0655 42.3667V45.189H61.801V42.541L61.1436 42.4615C60.5412 42.3881 60.0306 42.2933 59.6178 42.1771H59.6116ZM43.1643 32.9185L45.8398 26.6655C45.9927 26.3077 46.5003 26.3077 46.6501 26.6655L49.3042 32.9185C49.4265 33.2089 49.2155 33.5331 48.8975 33.5331H43.568C43.253 33.5331 43.039 33.2089 43.1613 32.9185H43.1643Z" fill="#D65C34"/>
<path d="M126.184 37.7433C125.918 38.6606 125.621 39.4158 125.303 39.9815C125.01 40.5013 124.655 40.9141 124.245 41.2077C123.835 41.5012 123.322 41.7061 122.713 41.8131C122.037 41.9323 121.212 41.9935 120.255 41.9935H113.607C113.216 41.9935 112.99 41.5532 113.219 41.2352L128.538 19.9934V18.541H107.77L106.813 26.3351H109.84L109.969 25.751C110.158 24.8949 110.403 24.1855 110.69 23.6412C110.959 23.1337 111.29 22.7453 111.702 22.4487C112.115 22.1521 112.623 21.9412 113.213 21.8219C113.855 21.6904 114.626 21.6232 115.497 21.6232H120.554C120.943 21.6232 121.169 22.0604 120.946 22.3754L105.862 43.822V45.1918H128.15L129.434 37.2051H126.334L126.178 37.7464L126.184 37.7433Z" fill="#D65C34"/>
<path d="M91.8341 37.7433C91.5681 38.6606 91.2715 39.4158 90.9535 39.9815C90.6599 40.5013 90.3052 40.9141 89.8925 41.2077C89.4827 41.5012 88.969 41.7061 88.3606 41.8131C87.6848 41.9323 86.8592 41.9935 85.9022 41.9935H79.2517C78.8634 41.9935 78.6371 41.5532 78.8634 41.2382L94.1885 19.9934V18.541H73.4207L72.4636 26.3351H75.4907L75.6192 25.751C75.8087 24.8949 76.0534 24.1855 76.3408 23.6412C76.6099 23.1337 76.9401 22.7453 77.3529 22.4487C77.7657 22.1521 78.2732 21.9412 78.8634 21.8219C79.5055 21.6904 80.276 21.6232 81.1475 21.6232H86.2079C86.5932 21.6232 86.8195 22.0574 86.5993 22.3754L71.5127 43.822V45.1918H93.8002L95.0844 37.2051H91.9839L91.828 37.7464L91.8341 37.7433Z" fill="#D65C34"/>
<path d="M156.544 18.501V21.3477H157.29C158.006 21.3477 158.565 21.3721 158.96 21.4211C159.067 21.4333 159.149 21.4486 159.214 21.4639C159.134 21.6504 158.978 21.9562 158.666 22.4485L154.382 29.3497C154.202 29.6401 153.786 29.6524 153.587 29.3741L148.759 22.6197C148.356 22.0112 148.191 21.6687 148.126 21.4853C148.126 21.4853 148.126 21.4792 148.123 21.4761C148.197 21.4455 148.334 21.4058 148.57 21.3813C148.851 21.3507 149.206 21.3355 149.622 21.3355C149.836 21.3355 150.068 21.3385 150.319 21.3477L151.092 21.3721V18.501H138.855V21.2804L139.574 21.3079C140.189 21.3324 140.711 21.3966 141.121 21.4975C141.5 21.5923 141.828 21.7268 142.09 21.9011C142.363 22.0785 142.619 22.3109 142.855 22.5891C143.118 22.901 143.402 23.2801 143.708 23.7388L150.728 33.5203C150.921 33.7894 151.028 34.1166 151.028 34.4468V39.9537C151.028 40.4858 150.988 40.923 150.912 41.2532C150.86 41.4795 150.762 41.6446 150.606 41.773C150.475 41.8801 150.212 42.0299 149.701 42.143C149.221 42.25 148.558 42.3142 147.735 42.3387L147.01 42.3601V45.1854H160.097V42.3601L159.373 42.3387C158.541 42.3142 157.865 42.2531 157.367 42.1583C156.85 42.0605 156.59 41.9167 156.465 41.8128C156.306 41.6813 156.196 41.504 156.134 41.2716C156.049 40.9505 156.006 40.5072 156.006 39.9568V34.2175C156.006 33.9178 156.092 33.6243 156.251 33.3705L162.118 24.0415C162.455 23.4881 162.782 23.0264 163.088 22.6747C163.369 22.3506 163.672 22.0876 163.99 21.8981C164.302 21.7115 164.672 21.574 165.087 21.4883C165.546 21.3935 166.112 21.3324 166.763 21.311L167.482 21.2835V18.501H156.559H156.544Z" fill="#D65C34"/>
<path d="M22.8311 22.32C22.1431 21.3324 21.2166 20.5405 20.0792 19.9717C18.9845 19.4244 17.7125 19.0361 16.3029 18.819C14.9331 18.608 13.4899 18.501 12.0161 18.501H0.52832V21.2284L1.23159 21.2712C2.08163 21.3202 2.76655 21.3844 3.27412 21.4578C3.76947 21.5311 4.0202 21.6596 4.14251 21.7544C4.23424 21.8247 4.36266 21.9531 4.42993 22.2558C4.50637 22.5983 4.54612 23.0814 4.54612 23.696V39.7305C4.54612 40.3726 4.50637 40.8832 4.42687 41.2563C4.37183 41.5131 4.27399 41.6966 4.12416 41.8189C3.9407 41.9687 3.63493 42.088 3.23743 42.1675C2.73597 42.2653 2.05411 42.3509 1.21018 42.4274L0.52832 42.4885V45.1946H13.5388V42.4304L12.8386 42.3876C12.0436 42.3387 11.3953 42.2684 10.9122 42.1858C10.5147 42.1155 10.212 42.0054 10.0102 41.8587C9.85121 41.7425 9.75031 41.5773 9.68915 41.345C9.60354 41.0086 9.55767 40.5194 9.55767 39.8895V34.031H10.4108C10.5973 34.031 10.7838 34.0096 10.9642 33.9576C12.6429 33.4684 13.8323 32.3462 13.7803 30.7745V30.7195C11.3525 30.7745 9.47511 29.2304 9.25496 26.8026C9.03481 24.2097 10.8541 22.1121 13.4501 21.892C15.988 21.6718 18.1406 23.271 18.4158 25.8089C18.4158 25.8089 19.3423 31.2852 14.1809 33.9576C14.927 33.8995 15.6761 33.8047 16.4222 33.6702C17.7737 33.4255 19.0059 32.9944 20.0914 32.389C21.2044 31.7683 22.1217 30.9458 22.8158 29.9398C23.5313 28.9032 23.8952 27.6098 23.8952 26.0963C23.8952 24.5827 23.5374 23.3413 22.8342 22.3261L22.8311 22.32Z" fill="#D65C34"/>
</svg>
